<svg width="94" height="91" viewBox="0 0 94 91" fill="none" xmlns="http://www.w3.org/2000/svg">
<path d="M34.3902 72.7998C53.3835 72.7998 68.7805 57.5215 68.7805 38.6748C68.7805 19.8281 53.3835 4.5498 34.3902 4.5498C15.397 4.5498 0 19.8281 0 38.6748C0 57.5215 15.397 72.7998 34.3902 72.7998Z" fill="#000A2D"/>
<path d="M55.5453 84.8738C52.7281 84.8738 49.9893 84.5244 47.3284 83.8255C44.7459 83.0488 42.4373 81.9231 40.4026 80.4476C38.368 78.8947 36.7246 76.9918 35.4725 74.7401C34.2986 72.4105 33.7117 69.6927 33.7117 66.5864C33.7117 62.8591 34.416 59.7919 35.8246 57.3845C37.3115 54.8998 39.2679 52.997 41.6939 51.677C44.1199 50.2792 46.8978 49.3087 50.0282 48.765C53.2366 48.1439 56.5628 47.8332 60.006 47.8332H75.1487C75.1487 44.8047 74.6792 42.1645 73.7401 39.9125C72.801 37.5829 71.314 35.7969 69.2794 34.5544C67.3229 33.2344 64.7014 32.5743 61.4146 32.5743C59.458 32.5743 57.5799 32.8072 55.7801 33.2732C54.0583 33.6614 52.5717 34.3215 51.3195 35.2533C50.0672 36.1852 49.2065 37.4276 48.737 38.9807H36.0594C36.5289 36.0299 37.5854 33.5061 39.2288 31.4095C40.8722 29.2352 42.9068 27.4492 45.3328 26.0514C47.7589 24.6536 50.3414 23.6441 53.0803 23.0229C55.8975 22.324 58.7537 21.9746 61.6494 21.9746C70.5707 21.9746 76.9879 24.576 80.9006 29.7788C84.8917 34.9039 86.8872 41.9704 86.8872 50.9781V84.1749H76.4399L75.9704 76.3708C74.1706 78.7782 72.0183 80.6027 69.5142 81.8453C67.0881 83.0879 64.6624 83.9033 62.2363 84.2914C59.8102 84.6795 57.5799 84.8738 55.5453 84.8738ZM57.4235 74.7401C60.9451 74.7401 64.0361 74.1576 66.697 72.9928C69.3578 71.7502 71.4313 70.003 72.9184 67.7513C74.4054 65.4217 75.1487 62.7039 75.1487 59.5976V57.0351H64.1145C61.8452 57.0351 59.6149 57.1129 57.4235 57.268C55.3106 57.3459 53.354 57.6562 51.5542 58.1999C49.8324 58.6658 48.4238 59.4812 47.3284 60.646C46.3109 61.8108 45.8024 63.4802 45.8024 65.6546C45.8024 67.7513 46.3503 69.4598 47.4458 70.7797C48.5412 72.0997 49.9893 73.1093 51.789 73.8082C53.5888 74.4293 55.4669 74.7401 57.4235 74.7401Z" fill="#F5F7FF"/>
</svg>
