<svg width="205" height="200" viewBox="0 0 205 200" fill="none" xmlns="http://www.w3.org/2000/svg">
<circle cx="75" cy="85" r="75" fill="#0226A8"/>
<path d="M121.136 186.536C114.992 186.536 109.019 185.768 103.216 184.232C97.584 182.525 92.5493 180.051 88.112 176.808C83.6747 173.395 80.0907 169.213 77.36 164.264C74.8 159.144 73.52 153.171 73.52 146.344C73.52 138.152 75.056 131.411 78.128 126.12C81.3707 120.659 85.6373 116.477 90.928 113.576C96.2187 110.504 102.277 108.371 109.104 107.176C116.101 105.811 123.355 105.128 130.864 105.128H163.888C163.888 98.472 162.864 92.6693 160.816 87.72C158.768 82.6 155.525 78.6747 151.088 75.944C146.821 73.0427 141.104 71.592 133.936 71.592C129.669 71.592 125.573 72.104 121.648 73.128C117.893 73.9813 114.651 75.432 111.92 77.48C109.189 79.528 107.312 82.2587 106.288 85.672H78.64C79.664 79.1867 81.968 73.64 85.552 69.032C89.136 64.2533 93.5733 60.328 98.864 57.256C104.155 54.184 109.787 51.9653 115.76 50.6C121.904 49.064 128.133 48.296 134.448 48.296C153.904 48.296 167.899 54.0133 176.432 65.448C185.136 76.712 189.488 92.2427 189.488 112.04V185H166.704L165.68 167.848C161.755 173.139 157.061 177.149 151.6 179.88C146.309 182.611 141.019 184.403 135.728 185.256C130.437 186.109 125.573 186.536 121.136 186.536ZM125.232 164.264C132.912 164.264 139.653 162.984 145.456 160.424C151.259 157.693 155.781 153.853 159.024 148.904C162.267 143.784 163.888 137.811 163.888 130.984V125.352H139.824C134.875 125.352 130.011 125.523 125.232 125.864C120.624 126.035 116.357 126.717 112.432 127.912C108.677 128.936 105.605 130.728 103.216 133.288C100.997 135.848 99.888 139.517 99.888 144.296C99.888 148.904 101.083 152.659 103.472 155.56C105.861 158.461 109.019 160.68 112.944 162.216C116.869 163.581 120.965 164.264 125.232 164.264Z" fill="#F5F7FF"/>
</svg>
